<svg width="1280" height="420" viewBox="0 0 1280 420" fill="none" xmlns="http://www.w3.org/2000/svg" role="img" aria-labelledby="title desc">
  <title id="title">Threads Automation Skills banner</title>
  <desc id="desc">Dark premium banner for Threads Automation Skills, showing agent workflow cards and bilingual automation positioning.</desc>
  <defs>
    <radialGradient id="g1" cx="0" cy="0" r="1" gradientUnits="userSpaceOnUse" gradientTransform="translate(1070 80) rotate(139) scale(680 520)">
      <stop stop-color="#7C3AED" stop-opacity="0.55"/>
      <stop offset="0.45" stop-color="#2563EB" stop-opacity="0.22"/>
      <stop offset="1" stop-color="#020617" stop-opacity="0"/>
    </radialGradient>
    <radialGradient id="g2" cx="0" cy="0" r="1" gradientUnits="userSpaceOnUse" gradientTransform="translate(230 390) rotate(-31) scale(520 360)">
      <stop stop-color="#22C55E" stop-opacity="0.25"/>
      <stop offset="1" stop-color="#020617" stop-opacity="0"/>
    </radialGradient>
    <linearGradient id="card" x1="0" y1="0" x2="1" y2="1">
      <stop stop-color="#172033" stop-opacity="0.92"/>
      <stop offset="1" stop-color="#08111F" stop-opacity="0.92"/>
    </linearGradient>
    <linearGradient id="accent" x1="442" y1="100" x2="960" y2="325" gradientUnits="userSpaceOnUse">
      <stop stop-color="#A78BFA"/>
      <stop offset="0.52" stop-color="#60A5FA"/>
      <stop offset="1" stop-color="#34D399"/>
    </linearGradient>
    <filter id="shadow" x="-20%" y="-20%" width="140%" height="140%" color-interpolation-filters="sRGB">
      <feDropShadow dx="0" dy="24" stdDeviation="30" flood-color="#000000" flood-opacity="0.35"/>
    </filter>
  </defs>

  <rect width="1280" height="420" rx="38" fill="#020617"/>
  <rect width="1280" height="420" rx="38" fill="url(#g1)"/>
  <rect width="1280" height="420" rx="38" fill="url(#g2)"/>

  <g opacity="0.32">
    <path d="M0 84H1280" stroke="#94A3B8" stroke-opacity="0.14"/>
    <path d="M0 168H1280" stroke="#94A3B8" stroke-opacity="0.11"/>
    <path d="M0 252H1280" stroke="#94A3B8" stroke-opacity="0.11"/>
    <path d="M0 336H1280" stroke="#94A3B8" stroke-opacity="0.14"/>
    <path d="M160 0V420" stroke="#94A3B8" stroke-opacity="0.10"/>
    <path d="M320 0V420" stroke="#94A3B8" stroke-opacity="0.10"/>
    <path d="M480 0V420" stroke="#94A3B8" stroke-opacity="0.10"/>
    <path d="M640 0V420" stroke="#94A3B8" stroke-opacity="0.10"/>
    <path d="M800 0V420" stroke="#94A3B8" stroke-opacity="0.10"/>
    <path d="M960 0V420" stroke="#94A3B8" stroke-opacity="0.10"/>
    <path d="M1120 0V420" stroke="#94A3B8" stroke-opacity="0.10"/>
  </g>

  <g transform="translate(78 76)">
    <rect x="0" y="0" width="78" height="78" rx="24" fill="#F8FAFC" fill-opacity="0.08" stroke="#CBD5E1" stroke-opacity="0.16"/>
    <path d="M39 18C29.1 18 21.6 24.5 21.6 34.4C21.6 44.8 29 50.4 38.1 50.4H43.7C42.4 55.2 38.2 58.2 31.4 59.5" stroke="url(#accent)" stroke-width="6" stroke-linecap="round" stroke-linejoin="round"/>
    <path d="M48.6 28.3C54.3 31.1 57.2 36 57.2 42.3C57.2 52.2 49.8 60.2 38.4 60.2" stroke="#F8FAFC" stroke-opacity="0.86" stroke-width="5" stroke-linecap="round"/>
  </g>

  <text x="78" y="195" fill="#F8FAFC" font-family="Inter, ui-sans-serif, system-ui, -apple-system, BlinkMacSystemFont, Segoe UI, sans-serif" font-size="68" font-weight="800" letter-spacing="-2.6">Threads Automation</text>
  <text x="82" y="246" fill="#CBD5E1" font-family="Inter, ui-sans-serif, system-ui, -apple-system, BlinkMacSystemFont, Segoe UI, sans-serif" font-size="24" font-weight="500">Reusable agent skills for contextual replies, visual posts, verification, and anti-AI writing polish.</text>

  <g transform="translate(82 286)">
    <rect width="168" height="42" rx="21" fill="#A78BFA" fill-opacity="0.13" stroke="#C4B5FD" stroke-opacity="0.26"/>
    <text x="22" y="27" fill="#EDE9FE" font-family="Inter, ui-sans-serif, system-ui" font-size="15" font-weight="700">Language match</text>
    <rect x="184" width="150" height="42" rx="21" fill="#60A5FA" fill-opacity="0.13" stroke="#93C5FD" stroke-opacity="0.26"/>
    <text x="206" y="27" fill="#DBEAFE" font-family="Inter, ui-sans-serif, system-ui" font-size="15" font-weight="700">No AI slop</text>
    <rect x="350" width="150" height="42" rx="21" fill="#34D399" fill-opacity="0.13" stroke="#6EE7B7" stroke-opacity="0.26"/>
    <text x="372" y="27" fill="#D1FAE5" font-family="Inter, ui-sans-serif, system-ui" font-size="15" font-weight="700">Verified runs</text>
  </g>

  <g filter="url(#shadow)">
    <g transform="translate(820 74)">
      <rect width="330" height="92" rx="24" fill="url(#card)" stroke="#CBD5E1" stroke-opacity="0.13"/>
      <circle cx="48" cy="46" r="18" fill="#A78BFA" fill-opacity="0.18"/>
      <path d="M39 46H57M48 37V55" stroke="#C4B5FD" stroke-width="3" stroke-linecap="round"/>
      <text x="84" y="40" fill="#F8FAFC" font-family="Inter, ui-sans-serif, system-ui" font-size="18" font-weight="800">Scan context</text>
      <text x="84" y="64" fill="#94A3B8" font-family="Inter, ui-sans-serif, system-ui" font-size="14">Read post language + intent</text>
    </g>
    <g transform="translate(880 184)">
      <rect width="330" height="92" rx="24" fill="url(#card)" stroke="#CBD5E1" stroke-opacity="0.13"/>
      <circle cx="48" cy="46" r="18" fill="#60A5FA" fill-opacity="0.18"/>
      <path d="M39 51C43 42 51 39 59 43" stroke="#93C5FD" stroke-width="3" stroke-linecap="round"/>
      <path d="M39 42H50" stroke="#93C5FD" stroke-width="3" stroke-linecap="round"/>
      <text x="84" y="40" fill="#F8FAFC" font-family="Inter, ui-sans-serif, system-ui" font-size="18" font-weight="800">Draft naturally</text>
      <text x="84" y="64" fill="#94A3B8" font-family="Inter, ui-sans-serif, system-ui" font-size="14">Contextual, non-generic replies</text>
    </g>
    <g transform="translate(800 294)">
      <rect width="330" height="92" rx="24" fill="url(#card)" stroke="#CBD5E1" stroke-opacity="0.13"/>
      <circle cx="48" cy="46" r="18" fill="#34D399" fill-opacity="0.18"/>
      <path d="M39 46L45.5 52.5L59 39" stroke="#6EE7B7" stroke-width="3.4" stroke-linecap="round" stroke-linejoin="round"/>
      <text x="84" y="40" fill="#F8FAFC" font-family="Inter, ui-sans-serif, system-ui" font-size="18" font-weight="800">Verify before report</text>
      <text x="84" y="64" fill="#94A3B8" font-family="Inter, ui-sans-serif, system-ui" font-size="14">VERIFIED / FAILED / UNVERIFIED</text>
    </g>
  </g>

  <path d="M620 128C703 108 742 105 819 121" stroke="url(#accent)" stroke-width="3" stroke-linecap="round" stroke-dasharray="8 12" opacity="0.55"/>
  <path d="M640 210C729 199 775 205 879 230" stroke="url(#accent)" stroke-width="3" stroke-linecap="round" stroke-dasharray="8 12" opacity="0.45"/>
  <path d="M615 306C697 323 743 332 800 336" stroke="url(#accent)" stroke-width="3" stroke-linecap="round" stroke-dasharray="8 12" opacity="0.45"/>

  <text x="82" y="370" fill="#64748B" font-family="Inter, ui-sans-serif, system-ui" font-size="15" font-weight="600">github.com/reydenim/threads-automation-skills</text>
</svg>
